<?xml version="1.0" encoding="UTF-8"?>
<svg id="Layer_1" xmlns="http://www.w3.org/2000/svg" version="1.1" viewBox="0 0 200 200">
  <!-- Generator: Adobe Illustrator 30.8.2, SVG Export Plug-In . SVG Version: 2.1.4 Build 7)  -->
  <defs>
    <style>
      .st0 {
        fill: #010101;
      }
    </style>
  </defs>
  <path class="st0" d="M170.52,59.1l-45.4-12.68h-.53c-.35-.03-.71-.03-1.06,0h-3.25l-42.98,12.36-42.98-12.36c-1.14-.32-2.35-.4-3.53-.24-1.18.15-2.31.54-3.28,1.13-.98.58-1.77,1.35-2.33,2.25-.55.89-.84,1.88-.85,2.89v88.75c0,1.33.49,2.63,1.41,3.71.92,1.08,2.23,1.89,3.73,2.32l45.4,12.68c1.52.42,3.17.42,4.69,0l43.13-12.05,42.98,12.36c.8.09,1.62.09,2.42,0,1.58.02,3.13-.41,4.39-1.21.98-.58,1.77-1.35,2.33-2.25s.84-1.88.85-2.89v-88.75c0-1.33-.49-2.63-1.41-3.71-.92-1.08-2.23-1.89-3.73-2.32h0ZM69.73,145.07l-30.26-8.43V61.26l30.26,8.43v75.38ZM115.13,136.63l-30.27,8.43v-75.38l30.27-8.43v75.38ZM160.53,145.07l-30.27-8.43V61.26l30.27,8.43v75.38Z"/>
</svg>