<?xml version="1.0" encoding="UTF-8"?>
<svg id="Layer_1" data-name="Layer 1" xmlns="http://www.w3.org/2000/svg" viewBox="0 0 200 200">
  <defs>
    <style>
      .cls-1 {
        fill: none;
        stroke: #d4af50;
        stroke-width: 4.64px;
      }

      .cls-2 {
        fill: rgba(255, 255, 255, .4);
      }
    </style>
  </defs>
  <path class="cls-2" d="M156.47,73.32c-7.31,16.14-9.28,24.74-27.57,32.95l-1.49,19.65-2.43,23.76c10.13-8.77,19.98-16.83,31.12-24.33,2.68-1.8,8.14-2.23,10.65-.24,2.7,2.14,3.89,7.46,2.75,10.61-4.19,11.6-26.24,21.05-39.44,25.32-4.79,1.55-10.33,2.42-15.39,1.26-13.34-3.05-25.94-7.04-38.66-12.07-5.06-2-7.99-6.53-10.84-10.85-3.71-5.62-4.5-14,2.58-17.42,10.87-5.24,30.95,17.04,43.57,24.79l-13.95-24.03c-4.01-6.91-7.46-13.8-12.27-20.69l-20.35,5.97c-8.86,2.6-26.18-4.87-32.78-13.35-3.68-4.72-1.8-14.99,3.76-17.13,5.55-2.14,10.99,2.29,16.26,3.17-4.73-2.98-9.9-6.42-12.6-11.95-2.47-5.07-1.99-12.32,1.27-16.44,4.83-6.11,12.34-7.07,17.96-2.22,3.59,3.1,5.62,7.02,8.12,12.01,1.6-8.35,3.65-16.22,10.76-21.01,2.48-1.67,6.25-2.97,8.52-2.44,12.99,3.07,10.57,33.47,6.46,48.57l-2.56,6.03,13.68,19.05,14.77,22.37c.83-9.19,1.18-17.57,1.37-26.87-5.72-2.81-11.41-5.25-15.21-10.27-7.66-10.13-6.32-44.34,1.28-48.23,3.98-2.04,7.82,6.36,10.71,13.73l7.53-17.06c1.6-3.63,5.35-7.5,8.95-8.6,3.8-1.16,6.92,2.8,7.05,6.22l.54,13.94,8.42-9.44c1.71-1.92,8.63-2.54,9.82-.01,3.9,8.27,1.22,17.38-2.34,25.24h0Z" shape-rendering="crispEdges"/>
  <path class="cls-1" d="M42.47,53.75c2.08-2.64,4.64-4.04,7.15-4.36,2.49-.31,5.13.43,7.47,2.45,3.19,2.76,5.03,6.25,7.56,11.29l3.07,6.12,1.29-6.72c1.61-8.39,3.55-15.32,9.78-19.52,1.04-.7,2.39-1.35,3.71-1.75,1.21-.37,2.16-.46,2.74-.39l.23.04c2.28.54,4.1,2.29,5.47,5.43,1.38,3.15,2.14,7.4,2.38,12.2.49,9.53-1.09,20.57-3.07,27.93l-2.49,5.88-.51,1.2.76,1.06,13.66,19.02,14.74,22.33,3.66,5.54.6-6.61c.83-9.26,1.19-17.7,1.38-27.03l.03-1.48-1.33-.65c-5.92-2.91-10.99-5.11-14.38-9.59-1.58-2.09-2.85-5.69-3.67-10.27-.8-4.51-1.11-9.69-.95-14.71.16-5.03.79-9.8,1.8-13.48.51-1.85,1.09-3.35,1.71-4.45.64-1.14,1.21-1.66,1.59-1.85.1-.05.21-.14.64.14.55.35,1.28,1.12,2.13,2.41,1.67,2.54,3.28,6.28,4.73,9.97l2.04,5.18,2.25-5.09,7.53-17.06h0c.66-1.51,1.82-3.14,3.23-4.53,1.42-1.4,2.95-2.38,4.28-2.79.88-.27,1.76-.01,2.59.81.87.87,1.43,2.17,1.47,3.27l.54,13.95.22,5.75,3.83-4.29,8.42-9.44h0s.08-.08.25-.17c.19-.11.47-.22.81-.33.69-.22,1.54-.37,2.4-.4.87-.03,1.62.06,2.13.22.26.08.38.16.43.19,3.37,7.24,1.12,15.45-2.39,23.21l-.17.37h0c-3.65,8.09-5.81,13.82-9.27,18.7-3.4,4.78-8.1,8.75-16.96,12.73l-1.26.56-.1,1.38-1.5,19.64-2.42,23.71-.6,5.82,4.42-3.83c10.1-8.74,19.88-16.74,30.9-24.16.88-.59,2.46-1.08,4.19-1.15,1.55-.06,2.76.22,3.46.62l.27.18c.8.64,1.58,1.96,2,3.67.37,1.49.38,2.91.13,3.93l-.12.41c-.87,2.4-2.74,4.87-5.45,7.31-2.7,2.43-6.1,4.74-9.85,6.86-7.51,4.24-16.16,7.62-22.68,9.73-4.58,1.48-9.67,2.23-14.16,1.21-13.21-3.02-25.7-6.97-38.32-11.96h0c-3.73-1.48-6.15-4.59-8.67-8.33l-1.09-1.64c-1.63-2.48-2.56-5.48-2.38-8.1.17-2.49,1.33-4.65,4.03-5.95,1.84-.89,4.36-.75,7.73.63,3.33,1.36,7.07,3.76,11.01,6.67,3.92,2.9,7.9,6.2,11.76,9.32,3.81,3.09,7.55,6.02,10.85,8.05l3.22-3.14-13.95-24.03c-3.92-6.76-7.5-13.85-12.38-20.85l-.95-1.37-1.6.47-20.35,5.97c-3.65,1.07-9.57.11-15.69-2.44-5.67-2.36-10.94-5.83-14.02-9.4l-.59-.71c-1.27-1.64-1.77-4.6-1.14-7.64.63-3.07,2.19-5.24,3.91-5.9,1.98-.76,4.05-.43,6.63.48,1.34.47,2.52.98,3.99,1.53,1.38.52,2.87,1.03,4.42,1.29l1.62-4.26c-4.78-3.01-9.38-6.14-11.75-11.01-1.03-2.11-1.48-4.77-1.29-7.39.19-2.62,1.02-4.98,2.29-6.59h0Z" shape-rendering="crispEdges"/>
</svg>